<svg id="Capa_1" enable-background="new 0 0 379.128 379.128" height="512" viewBox="0 0 379.128 379.128" width="512" xmlns="http://www.w3.org/2000/svg"><g><g><path d="m372.04 6.321c-24.944-24.943-116.986 26.141-205.286 114.391s-139.684 180.192-114.391 205.285 117.234-26.091 205.285-114.391 139.484-180.191 114.392-205.285z" fill="#fcd462"/><path d="m264.383 204.523.749-.3c2.309-.884 4.426-2.206 6.235-3.892 2.019-1.865 3.457-4.272 4.141-6.934.439-3.798-1.082-7.557-4.041-9.977 1.325-.717 2.549-1.607 3.642-2.643 4.767-3.564 5.742-10.316 2.178-15.083-.618-.827-1.351-1.561-2.178-2.178.609-.301 1.194-.652 1.746-1.047l.35-.35c.665-.433 1.283-.935 1.846-1.496l.3-.3c3.714-3.45 9.522-3.235 12.973.479.068.072.134.145.198.22l-.449.25h.499l.649.549c2.546 2.052 3.925 5.219 3.692 8.481-.586 3.065-2.163 5.852-4.489 7.931-1.21 1.192-2.588 2.201-4.091 2.993 2.599-.884 4.981-2.313 6.984-4.191 2.924-2.458 4.5-6.166 4.241-9.977-.618-2.9-2.179-5.514-4.439-7.434 1.325-.717 2.549-1.607 3.642-2.643 4.767-3.564 5.742-10.316 2.178-15.083-.618-.827-1.351-1.561-2.178-2.178.609-.301 1.194-.652 1.746-1.047l.35-.35c.668-.43 1.286-.932 1.846-1.496l.3-.3c3.714-3.45 9.522-3.235 12.973.479.068.072.134.145.198.22h-.449.499l.649.549c1.212 1.163 2.209 2.53 2.943 4.041.699-.849 1.297-1.696 1.946-2.545-.765-1.229-1.67-2.367-2.693-3.392 1.325-.717 2.549-1.607 3.642-2.643 4.767-3.564 5.742-10.316 2.178-15.083-.618-.827-1.351-1.561-2.178-2.178.599-.35 1.197-.699 1.746-1.097l.35-.35c.668-.43 1.286-.933 1.846-1.496v-.3c3.74-3.463 9.579-3.24 13.042.501.06.065.119.131.178.198l-.449.25h.499l1.596-2.445c-2.993-3.74-8.315-4.641-12.372-2.096 2.494-4.498 1.278-10.146-2.843-13.22l1.446-.897.399-.3c.651-.49 1.267-1.024 1.846-1.596 3.618-3.432 9.332-3.282 12.766.336.035.037.07.075.106.113l.997.849c2.087 1.847 3.404 4.411 3.692 7.184.749-1.147 1.496-2.295 2.146-3.492-.77-2.197-2.072-4.168-3.792-5.737.599-.35 1.197-.699 1.746-1.097l.35-.35c.68-.433 1.301-.953 1.846-1.546v-.25c1.856-1.542 4.174-2.42 6.585-2.495.499-.849.947-1.696 1.397-2.545-1.775-.018-3.516.505-4.989 1.496 2.535-4.588 1.25-10.344-2.993-13.419-.984-.959-2.053-1.827-3.193-2.595l.799-.549.349-.25c.549-.449 1.147-.897 1.596-1.347v-.25c3.204-2.981 8.212-2.824 11.225.35l.897.749c1.094 1.063 1.99 2.313 2.643 3.692.399-.947.897-1.846 1.297-2.793-.634-.974-1.37-1.877-2.195-2.693.543-.269 1.06-.586 1.546-.947l.3-.3c.579-.411 1.128-.862 1.646-1.347.521-.405 1.072-.772 1.646-1.097l.897-2.096.649-1.297c1.238-3.796-.063-7.961-3.242-10.377-.803-.806-1.689-1.526-2.643-2.146l.799-.599.799-.799.897-.649v-.25c2.369-2.226 5.977-2.477 8.63-.599l.599-2.295c-2.146-1.43-4.939-1.43-7.084 0 1.9-3.519.922-7.901-2.295-10.277l1.397-.897.79-.802.897-.649v-.25c2.328-2.206 5.876-2.495 8.531-.699.047-.831.047-1.664 0-2.495-2.115-1.024-4.62-.814-6.535.549 1.771-3.441.802-7.657-2.295-9.977-4.041-4.091-7.284-3.991-9.977-2.195 1.941-3.498.955-7.893-2.295-10.227-4.041-4.041-7.234-3.991-9.977-2.145l.499-1.147h-1.846c-.599 1.906-1.681 3.624-3.143 4.989l-1.097.947c-3.842-3.592-6.934-3.492-9.677-1.746l.35-.849-1.996.599c-.643 1.552-1.612 2.947-2.843 4.091l-.649.549c-.621-.938-1.341-1.808-2.146-2.595l-2.545.997.847.799c.695.717 1.313 1.502 1.846 2.345l-.449.25.449-.25c2.364 4.06 1.238 9.255-2.593 11.973l-1.297 1.097c-2.571-3.472-7.4-4.345-11.026-1.996 1.824-2.811 1.684-6.466-.35-9.13l-2.245 1.097c2.943 4.489 1.047 8.531-2.545 12.123l-.699.599c-.718-1.176-1.571-2.266-2.545-3.242-1.498-1.585-3.295-2.856-5.288-3.742l-3.692 2.046c2.687.369 5.152 1.698 6.934 3.742.872.881 1.626 1.869 2.245 2.943h-.499.549c2.943 4.989.847 9.429-3.143 13.419-.448.454-.931.871-1.447 1.247-4.989-4.689-9.03-4.589-12.672-2.295 2.529-4.322 1.463-9.851-2.495-12.921-.897.499-1.696.947-2.545 1.496 6.086 6.086 3.941 11.623-.847 16.414l-1.247.997c-4.989-4.989-9.03-4.989-12.672-2.893.946-1.736 1.297-3.733.997-5.688l-2.545 1.696c.093 2.568-.778 5.078-2.445 7.034-.499.499-.997 1.147-1.546 1.796l-.3.399-.549.499.699.699.649-.15.349-.3c.648-.492 1.264-1.026 1.846-1.596l.3-.25c3.714-3.45 9.522-3.235 12.973.479.068.072.134.145.198.22l.649.549c6.086 6.086 3.941 11.623-.847 16.414l-1.446 1.297c-4.989-4.989-9.03-4.639-12.672-2.345 2.545-4.576 1.282-10.33-2.943-13.419-1.498-1.585-3.295-2.856-5.288-3.742l-2.893 2.096c2.36.609 4.492 1.893 6.135 3.692 6.086 6.086 3.942 11.623-.847 16.414l-1.197.997c-4.989-4.989-9.08-4.989-12.722-2.893 1.812-3.574 1.194-7.902-1.546-10.826l-2.295 1.746c2.849 3.583 2.658 8.71-.449 12.073-.499.499-.997 1.147-1.546 1.796l-.3.399-.549.499.699.699.499-.549.35-.3c.648-.492 1.264-1.026 1.846-1.596h.3c3.714-3.45 9.522-3.235 12.973.479.068.072.134.145.198.22l.649.549c6.086 6.086 3.941 11.623-.849 16.414l-1.397 1.247c-4.989-4.689-9.08-4.589-12.722-2.295 2.426-4.527 1.175-10.149-2.943-13.22-4.989-4.989-9.03-5.288-12.722-3.392-1.667.886-3.184 2.029-4.489 3.392l-1.097 1.247c-.41.483-.777 1-1.097 1.546l.499.549.499-.549c4.989-4.989 9.977-7.184 16.412-.849s3.941 11.623-.847 16.414l-1.197.997c-4.989-4.989-9.08-4.989-12.722-2.893 2.237-4.539.89-10.03-3.193-13.02l-.499-.449c-.749.599-1.446 1.297-2.245 1.846l.699.649c4.193 3.27 4.94 9.321 1.67 13.513-.135.173-.276.341-.423.505l-1.546 1.846-.3.399-.549.499.699.699.499-.549.35-.3c.648-.492 1.264-1.026 1.846-1.596l.3-.3c3.767-3.435 9.604-3.166 13.037.601.044.048.088.098.132.148l.649.549c6.086 6.086 3.941 11.623-.847 16.414l-1.397 1.247c-4.989-4.689-9.08-4.589-12.722-2.295 2.545-4.576 1.282-10.33-2.943-13.419-7.084-7.034-12.472-4.739-17.211 0-.853.878-1.607 1.849-2.245 2.893l.499.549.499-.549c4.989-4.989 9.977-7.184 16.412-.847s3.941 11.623-.847 16.414c-.373.383-.792.718-1.247.997-4.989-4.739-9.03-4.989-12.672-2.893 2.237-4.539.89-10.03-3.193-13.02-.614-.653-1.282-1.254-1.996-1.796l-2.145 1.996c.739.568 1.438 1.185 2.096 1.846 4.215 3.241 5.005 9.287 1.764 13.502-.163.213-.336.419-.517.617-.499.499-.997 1.147-1.546 1.796l-.3.399-.549.499.699.699.499-.549.35-.3c.648-.492 1.264-1.026 1.846-1.596l.3-.3c3.767-3.435 9.604-3.166 13.037.601.044.048.088.098.132.148l.649.549c6.086 6.086 3.941 11.623-.847 16.412l-1.397 1.247c-4.989-4.689-9.08-4.589-12.722-2.295 2.545-4.576 1.282-10.33-2.943-13.419-7.084-7.034-12.472-4.739-17.211 0-.853.878-1.607 1.849-2.245 2.893l.499.549.499-.549c4.989-4.989 9.977-7.184 16.414-.847 6.435 6.335 3.941 11.623-.847 16.412l-1.247.997c-4.989-4.739-9.03-4.989-12.672-2.893 2.237-4.539.89-10.03-3.193-13.02-.733-.77-1.535-1.471-2.395-2.096l-2.096 2.096c.888.589 1.708 1.275 2.445 2.046 4.193 3.27 4.94 9.321 1.67 13.513-.135.173-.276.341-.423.505-.499.499-.997 1.147-1.546 1.796l-.3.399-.549.499.699.699.499-.549-.15.35c.633-.474 1.234-.991 1.796-1.546l.3-.3c3.767-3.435 9.604-3.166 13.037.601.044.048.088.098.132.148l.649.549c6.086 6.086 3.941 11.623-.847 16.414l-1.397 1.247c-4.989-4.689-9.08-4.589-12.722-2.295 2.545-4.576 1.282-10.33-2.943-13.419-7.084-7.034-12.472-4.739-17.211 0-.85.881-1.602 1.852-2.245 2.893l.499.499.499-.499c4.989-4.989 9.977-7.184 16.414-.847 6.435 6.335 4.041 11.523-.947 16.214l-1.197.997c-4.989-4.989-9.08-4.989-12.722-2.893 2.129-4.441.861-9.767-3.043-12.772-.599-.599-1.197-1.147-1.746-1.596l-1.996 2.195c.614.423 1.182.908 1.696 1.446 4.193 3.27 4.94 9.321 1.67 13.513-.135.173-.276.341-.421.505-.535.567-1.035 1.167-1.496 1.796l-.35.399-.549.499.699.699.499-.549.35-.35c.659-.461 1.278-.978 1.846-1.546l.3-.3c3.767-3.435 9.604-3.166 13.037.601.044.048.088.098.132.148l.649.549c6.086 6.086 3.941 11.623-.849 16.414l-1.397 1.247c-4.989-4.689-9.08-4.589-12.722-2.295 2.514-4.611 1.185-10.374-3.093-13.419-6.635-6.585-11.773-4.989-16.314-.799l-.897.799c-.85.881-1.602 1.852-2.245 2.893l.499.499.499-.499c4.989-4.989 9.977-7.184 16.412-.849s3.941 11.623-.847 16.414l-1.197.997c-4.989-4.989-9.08-4.989-12.722-2.893 2.237-4.539.89-10.03-3.193-13.02l-1.846 2.245c4.091 3.353 4.692 9.387 1.339 13.479-.094.116-.192.229-.291.339-.499.549-.997 1.197-1.496 1.846l-.35.399-.549.499.699.699.499-.549.35-.35c.659-.461 1.278-.978 1.846-1.546l.3-.3c3.727-3.436 9.534-3.201 12.971.524.068.073.134.148.2.223l.649.549c6.086 6.086 3.941 11.623-.849 16.414l-1.397 1.247c-4.989-4.689-9.08-4.589-12.722-2.295 2.545-4.576 1.282-10.33-2.943-13.419-2.215-2.649-5.432-4.259-8.88-4.439l-2.195 2.793c3.447-.424 6.867.974 9.03 3.692 6.086 6.086 3.941 11.623-.849 16.412l-1.197.997c-4.989-4.989-9.08-4.989-12.722-2.893 1.787-3.153 1.552-7.061-.599-9.977l-1.896 2.545c1.667 3.423 1.073 7.517-1.496 10.327-.499.499-.997 1.147-1.496 1.746l-.35.449-.549.499.699.699.499-.549.35-.35c.658-.463 1.275-.981 1.846-1.546l.3-.3c3.727-3.436 9.534-3.201 12.971.524.068.073.134.148.2.223h-.399.449l.649.549c6.086 6.086 3.941 11.623-.847 16.412l-1.397 1.247c-4.989-4.689-9.08-4.589-12.722-2.295 2.568-4.571 1.303-10.343-2.943-13.419-1.11-1.123-2.35-2.112-3.692-2.943l-1.696 2.395c1.232.702 2.357 1.576 3.342 2.593 6.086 6.086 3.941 11.623-.849 16.414-1.203 1.165-2.563 2.156-4.041 2.943 1.768-.579 3.448-1.401 4.989-2.445l.499-.399c.614-.461 1.197-.962 1.746-1.496 3.765-3.197 9.396-2.798 12.672.899l.997.897c6.086 6.086 3.941 11.673-.849 16.412-1.194 1.176-2.555 2.169-4.041 2.943 1.759-.58 3.436-1.385 4.989-2.395l.35-.3c.661-.479 1.294-.994 1.896-1.546l.25-.3c3.686-3.436 9.454-3.259 12.921.399l.997.849c6.086 6.086 3.941 11.623-.847 16.412-1.191 1.192-2.554 2.201-4.041 2.993 1.758-.604 3.435-1.424 4.989-2.445l.35-.3c.661-.479 1.294-.994 1.896-1.546l.25-.3c3.682-3.444 9.459-3.251 12.904.43.006.006.012.012.018.018l.997.849c6.086 6.086 3.941 11.623-.849 16.412-1.216 1.165-2.573 2.17-4.041 2.993 1.758-.604 3.435-1.424 4.989-2.445l.399-.3c.648-.492 1.264-1.026 1.846-1.596 3.67-3.458 9.447-3.287 12.905.382.006.006.01.012.016.016l.997.847c3.546 2.742 4.673 7.601 2.693 11.623-.887 1.853-2.085 3.541-3.542 4.989-1.189 1.181-2.552 2.173-4.041 2.943 2.298-.94 4.384-2.332 6.135-4.091 1.686-1.577 2.983-3.524 3.792-5.688 1.261-4.27-.247-8.877-3.792-11.573.609-.301 1.194-.652 1.746-1.047l.35-.35c.678-.435 1.298-.955 1.846-1.546h.3c3.714-3.45 9.522-3.235 12.973.479.068.072.134.145.198.22l.649.549c.706.683 1.341 1.435 1.896 2.245 3.542 4.989 1.397 9.977-2.743 14.168-1.182 1.012-2.491 1.866-3.892 2.545 2.56-.905 4.905-2.332 6.884-4.191 4.708-3.316 5.837-9.82 2.521-14.528-.104-.148-.213-.295-.326-.438-.607-.861-1.291-1.662-2.046-2.395 1.314-.734 2.536-1.621 3.642-2.643 4.767-3.564 5.742-10.316 2.178-15.083-.618-.827-1.351-1.561-2.178-2.178.609-.301 1.194-.652 1.746-1.047l.35-.35c.665-.433 1.283-.935 1.846-1.496l.3-.3c3.714-3.45 9.522-3.235 12.973.479.068.072.134.145.198.22h-.449.499l.649.549c1.837 1.646 3.11 3.827 3.642 6.235.186 3.842-1.461 7.544-4.439 9.977-1.189 1.181-2.552 2.173-4.041 2.943 2.576-.88 4.939-2.291 6.934-4.141 3.288-2.617 4.83-6.858 3.991-10.976-.962-2.179-2.454-4.082-4.339-5.538 1.322-.721 2.546-1.609 3.642-2.643 4.767-3.564 5.742-10.316 2.178-15.083-.618-.827-1.351-1.561-2.178-2.178.617-.289 1.201-.64 1.746-1.047l.35-.35c.665-.433 1.283-.935 1.846-1.496l.3-.3c3.714-3.45 9.522-3.235 12.973.479.068.072.134.145.198.22l-.449.25h.499l.649.549c3.002 2.364 4.331 6.273 3.392 9.977-.797 2.51-2.242 4.764-4.191 6.535-1.21 1.192-2.588 2.201-4.091 2.993 2.592-.902 4.969-2.329 6.984-4.191 2.332-2.066 3.853-4.896 4.291-7.981.022-3.513-1.511-6.857-4.191-9.13 1.322-.721 2.546-1.609 3.642-2.643 4.767-3.563 5.742-10.316 2.178-15.083-.618-.827-1.351-1.561-2.178-2.178.617-.289 1.201-.64 1.746-1.047v-.549c.678-.435 1.298-.955 1.846-1.546h.3c3.714-3.45 9.522-3.235 12.973.479.068.072.134.145.198.22h-.449.499l.699.549c3.925 3.057 4.839 8.62 2.096 12.772-.849 1.316-1.834 2.536-2.943 3.642-1.147 1.116-2.439 2.072-3.842 2.843 2.516-.834 4.815-2.213 6.735-4.041 1.837-1.736 3.225-3.893 4.041-6.285.814-4.062-.706-8.238-3.941-10.826 1.325-.717 2.549-1.607 3.642-2.643 4.767-3.564 5.742-10.316 2.178-15.083-.618-.827-1.351-1.561-2.178-2.178.609-.301 1.194-.652 1.746-1.047l.35-.35c.678-.435 1.298-.955 1.846-1.546h.3c3.714-3.45 9.522-3.235 12.973.479.068.072.134.145.198.22h-.449.499l.649.549c3.846 2.908 4.859 8.259 2.345 12.372-.866 1.479-1.924 2.837-3.143 4.041-.884.881-1.872 1.652-2.943 2.295zm32.426-62.908c6.086 6.086 3.941 11.623-.847 16.412l-1.197 1.047c-4.989-4.989-9.18-4.989-12.872-2.593 2.438-4.516 1.207-10.136-2.893-13.22l1.447-.897.399-.3c.651-.49 1.267-1.024 1.846-1.596 3.618-3.432 9.332-3.282 12.766.336.035.037.07.075.106.113zm-148.164 65.451.649.549c6.135 6.086 3.991 11.673-.799 16.412-.448.454-.931.871-1.446 1.247-4.989-4.689-9.03-4.589-12.672-2.345 2.245-3.892 2.046-8.331-2.993-13.369.623-.325 1.223-.692 1.796-1.097l.449-.399c.637-.43 1.223-.932 1.746-1.496 3.621-3.508 9.401-3.417 12.91.204.125.128.244.26.361.395v-.1h-.001zm23.746-23.745.649.549c6.135 6.086 3.991 11.673-.799 16.414-.448.454-.931.871-1.446 1.247-4.989-4.689-9.03-4.589-12.672-2.345 2.245-3.892 2.046-8.331-2.993-13.369.623-.325 1.223-.692 1.796-1.097l.2-.15c.637-.43 1.223-.933 1.746-1.496 3.621-3.508 9.401-3.417 12.91.204.125.128.244.26.361.395zm23.746-23.696.649.549c6.086 6.086 3.991 11.673-.799 16.414-.448.454-.931.871-1.446 1.247-4.989-4.689-9.03-4.589-12.672-2.345 2.245-3.892 2.046-8.331-2.993-13.369.599-.35 1.197-.699 1.746-1.097l.449-.399c.637-.43 1.223-.932 1.746-1.496 3.674-3.494 9.484-3.348 12.977.326.1.106.198.213.292.323zm23.747-23.748.649.549c6.086 6.086 3.991 11.673-.799 16.414-.448.454-.931.871-1.446 1.247-4.989-4.689-9.03-4.589-12.672-2.295 2.245-3.941 2.046-8.381-2.993-13.419.623-.325 1.223-.692 1.796-1.097l.449-.399c.637-.43 1.223-.933 1.746-1.496 3.674-3.494 9.484-3.348 12.977.326.1.106.198.213.292.323zm23.746-23.745.649.549c6.135 6.086 3.991 11.673-.799 16.414-.46.442-.941.859-1.446 1.247-4.989-4.689-9.03-4.589-12.672-2.345 2.527-4.571 1.242-10.312-2.993-13.369.623-.325 1.223-.692 1.796-1.097l.449-.399c.637-.43 1.223-.933 1.746-1.496 3.674-3.494 9.484-3.348 12.977.326.1.106.198.213.292.323zm23.746-23.746.649.549c6.135 6.086 3.991 11.673-.799 16.414-.46.442-.941.859-1.446 1.247-4.989-4.689-9.03-4.589-12.672-2.345 2.527-4.571 1.242-10.312-2.993-13.369.614-.313 1.198-.681 1.746-1.097l.449-.399c.637-.43 1.223-.933 1.746-1.496 3.621-3.508 9.401-3.417 12.91.204.125.128.244.26.361.395zm23.746-23.547.649.549c6.086 6.086 3.991 11.673-.799 16.414-.449.449-.947.849-1.496 1.297-4.989-4.989-8.98-4.639-12.622-2.395 2.527-4.571 1.242-10.312-2.993-13.369.614-.313 1.198-.681 1.746-1.097l.449-.399c.637-.43 1.223-.933 1.746-1.496 3.661-3.507 9.472-3.382 12.979.279.1.104.197.21.292.319zm24.944-22.45c4.989 5.787 3.143 11.125-1.447 15.665-.449.449-.947.849-1.496 1.297-4.989-4.989-8.98-4.639-12.622-2.345 2.535-4.588 1.25-10.344-2.993-13.419.606-.325 1.189-.692 1.746-1.097l.449-.399c.637-.43 1.223-.933 1.746-1.496 3.771-3.551 9.707-3.373 13.258.396.254.269.491.554.711.85l.549.649-.847.499zm21.102-19.455c4.689 4.989 2.893 9.977-1.147 13.769l-1.247 1.097c-2.598-3.423-7.372-4.309-11.026-2.046 2.198-3.974 1.085-8.962-2.593-11.623l1.546-.947.399-.35c.532-.392 1.032-.827 1.496-1.297 3.284-3.103 8.462-2.958 11.566.326.216.229.419.47.606.721l.35.499-.649.399zm4.989-3.093c2.831-2.659 7.284-2.52 9.943.313.012.012.023.025.035.037l.799.649c3.336 2.796 3.774 7.767.978 11.103-.471.562-1.019 1.056-1.627 1.467l-.399.35c-2.62-3.03-7.08-3.649-10.426-1.446 1.972-3.454 1.311-7.811-1.596-10.526l.599-.499.847-.749.897-.649zm-170.564 199.148c3.602-3.448 9.318-3.323 12.767.279.069.072.137.145.204.22l1.047.847c6.086 6.086 3.941 11.673-.849 16.414l-1.197 1.047c-4.989-4.989-9.18-4.989-12.872-2.545 2.477-4.516 1.266-10.165-2.843-13.269l1.397-.897.35-.3c.661-.479 1.294-.994 1.896-1.546zm15.366-1.246c-4.989-4.689-8.98-4.589-12.622-2.295 2.535-4.588 1.25-10.344-2.993-13.419l1.746-1.097.35-.3c.656-.466 1.273-.982 1.846-1.546l.3-.35c3.795-3.361 9.595-3.01 12.958.784.004.004.009.01.013.015l-.399.25h.449l.699.549c6.037 6.086 3.892 11.623-.847 16.414-.453.147-.953.595-1.5.995zm-18.658-14.468.997.799c6.086 6.086 3.941 11.623-.847 16.414l-1.197 1.047c-4.989-4.989-9.23-4.989-12.872-2.545 2.489-4.524 1.253-10.193-2.893-13.269l1.496-.897.35-.35c.671-.446 1.306-.947 1.896-1.496l.3-.3c3.632-3.417 9.346-3.244 12.764.388.019.021.038.041.057.062zm23.746-23.696.997.847c6.086 6.086 3.941 11.623-.847 16.414l-1.197 1.047c-4.989-4.989-9.23-4.989-12.872-2.545 2.489-4.524 1.253-10.193-2.893-13.27l1.496-.897.35-.35c.671-.446 1.306-.947 1.896-1.496l.3-.3c3.592-3.419 9.277-3.278 12.695.314.043.044.084.09.126.135zm-.599 18.707 1.446-.897.35-.3c.661-.479 1.294-.994 1.896-1.546v-.3c3.657-3.43 9.403-3.248 12.833.41.012.013.025.026.037.04l1.047.849c6.086 6.086 3.941 11.673-.849 16.412l-1.197 1.047c-4.989-4.989-9.18-4.989-12.872-2.545 2.51-4.48 1.364-10.122-2.693-13.269v.1h.002zm19.306-4.189c-4.989-4.689-9.03-4.589-12.672-2.295 2.535-4.588 1.25-10.344-2.993-13.419l1.746-1.047.35-.3c.661-.479 1.294-.994 1.896-1.546v-.35c3.767-3.435 9.604-3.166 13.037.601.044.048.088.098.132.148h-.399.449l.699.549c6.037 6.086 3.892 11.623-.847 16.412zm4.989-38.264.997.849c6.086 6.086 3.941 11.623-.847 16.414l-1.197 1.047c-4.989-4.989-9.23-4.989-12.872-2.545 2.489-4.524 1.253-10.193-2.893-13.27l1.496-.897.35-.3c.661-.479 1.294-.994 1.896-1.546v-.3c3.657-3.43 9.403-3.248 12.833.41.012.013.025.026.037.04zm-.549 18.757 1.446-.897.35-.3c.661-.479 1.294-.994 1.896-1.546v-.3c3.657-3.43 9.403-3.248 12.833.41.012.013.025.026.037.04l1.047.847c6.086 6.086 3.941 11.623-.847 16.412l-1.197 1.047c-4.989-4.989-9.18-4.989-12.872-2.545 2.452-4.455 1.311-10.031-2.693-13.168zm19.256-4.341c-4.989-4.689-8.98-4.589-12.622-2.295 2.535-4.588 1.25-10.344-2.993-13.419l1.746-1.047.35-.3c.661-.479 1.294-.994 1.896-1.546l.25-.35c3.767-3.435 9.604-3.166 13.037.601.044.048.088.098.132.148h-.399.449l.699.549c6.037 6.086 3.892 11.623-.847 16.412-.649.6-1.149.849-1.698 1.247zm4.989-38.262.997.849c6.086 6.086 3.941 11.623-.849 16.414l-1.197 1.047c-4.989-4.989-9.23-4.989-12.872-2.545 2.372-4.457 1.192-9.973-2.793-13.07l1.496-.897.35-.35c.671-.446 1.306-.947 1.896-1.496l.25-.3c3.657-3.43 9.403-3.248 12.833.41.012.013.025.026.037.04zm-.548 18.708 1.397-.897.35-.3c.661-.479 1.294-.994 1.896-1.546l.25-.3c3.657-3.43 9.403-3.248 12.833.41.012.013.025.026.037.04l1.047.849c6.086 6.086 3.941 11.623-.847 16.412l-1.197 1.047c-4.989-4.989-9.18-4.989-12.872-2.545 2.429-4.48 1.245-10.062-2.793-13.17-.001 0-.101 0-.101 0zm19.207-4.191c-4.989-4.689-8.98-4.589-12.622-2.295 2.535-4.588 1.25-10.344-2.993-13.419l1.946-1.097.35-.3c.656-.466 1.273-.982 1.846-1.546l.3-.35c3.727-3.436 9.534-3.201 12.971.524.068.073.134.148.2.223h-.399.449l.699.549c6.036 6.086 3.892 11.623-.849 16.414-.558.485-1.16.919-1.796 1.297zm4.988-38.214.997.799c6.086 6.086 3.941 11.623-.847 16.414l-1.197 1.047c-4.989-4.989-9.23-4.989-12.872-2.545 2.466-4.527 1.234-10.18-2.893-13.269l1.496-.897.35-.35c.683-.43 1.319-.933 1.896-1.496l.3-.3c3.632-3.417 9.346-3.244 12.764.388.019.021.038.041.057.062zm23.746-23.796.997.849c6.086 6.086 3.941 11.623-.847 16.414l-1.197 1.047c-4.989-4.989-9.23-4.989-12.872-2.545 2.466-4.527 1.234-10.18-2.893-13.269l1.496-.897.35-.35c.683-.43 1.319-.933 1.896-1.496l.3-.3c3.592-3.419 9.277-3.278 12.695.314.043.044.084.09.126.135zm-19.107 21.302.35-.3c.658-.463 1.275-.981 1.846-1.546l.3-.35c3.727-3.436 9.534-3.201 12.971.524.068.073.134.148.2.223h-.399.449l.699.549c6.037 6.086 3.892 11.623-.847 16.412-.466.454-.966.871-1.496 1.247-4.989-4.689-8.98-4.589-12.622-2.295 2.535-4.588 1.25-10.344-2.993-13.419.602-.314 1.185-.664 1.746-1.047zm-4.988 21.153 1.397-.897.35-.3c.673-.463 1.307-.979 1.896-1.546v-.3c3.717-3.367 9.459-3.084 12.825.633.05.054.098.11.145.164l1.047.847c6.086 6.086 3.941 11.673-.847 16.414l-1.197 1.047c-4.989-4.989-9.18-4.989-12.872-2.545 2.647-4.549 1.467-10.36-2.744-13.517zm19.954-3.692c.609-.301 1.194-.652 1.746-1.047l.35-.3c.664-.476 1.297-.993 1.896-1.546v-.3c3.714-3.45 9.522-3.235 12.973.479.068.072.134.145.198.22h-.399.449l.649.549c6.086 6.086 3.991 11.673-.799 16.412-.46.442-.941.859-1.446 1.247-4.989-4.639-9.08-4.589-12.672-2.345 2.483-4.599 1.159-10.328-3.093-13.369zm19.656-4.241c-4.989-4.989-9.18-4.989-12.872-2.545 2.466-4.527 1.234-10.18-2.893-13.269l1.446-.897.35-.3c.673-.463 1.307-.979 1.896-1.546v-.3c3.657-3.43 9.403-3.248 12.833.41.012.013.025.026.037.04l1.047.849c6.086 6.086 3.941 11.673-.847 16.412zm3.492-19.954c-4.989-4.689-8.98-4.589-12.622-2.295 2.535-4.588 1.25-10.344-2.993-13.419.649-.3 1.197-.699 1.796-1.047l.35-.3c.658-.463 1.275-.981 1.846-1.546v-.3c3.74-3.463 9.579-3.24 13.042.501.06.065.119.131.178.198l-.399.25h.449l.699.549c6.037 6.086 3.892 11.623-.849 16.414-.524.358-1.073.674-1.646.947zm4.989-38.264.997.849c6.037 6.086 3.941 11.623-.847 16.414l-1.197 1.047c-4.989-4.989-9.23-4.989-12.872-2.545 2.483-4.51 1.245-10.161-2.893-13.22l1.496-.947.35-.3c.673-.463 1.307-.979 1.896-1.546v-.3c3.618-3.432 9.332-3.282 12.766.336.035.037.07.075.106.113zm-.6 18.757 1.447-.947.35-.3c.673-.463 1.307-.979 1.896-1.546v-.3c3.657-3.43 9.403-3.248 12.833.41.012.013.025.026.037.04l1.047.849c6.086 6.086 3.941 11.623-.847 16.414l-1.197 1.047c-4.989-4.989-9.23-4.989-12.872-2.545 2.485-4.461 1.316-10.073-2.743-13.17zm19.257-4.241c-4.989-4.689-8.98-4.589-12.622-2.295 2.535-4.588 1.25-10.344-2.993-13.419l1.796-1.097.35-.3c.664-.476 1.297-.993 1.896-1.546v-.3c3.445-3.2 8.777-3.2 12.222 0l-.699.449.847-.399c.499.499 1.047.849 1.596 1.347 6.037 6.086 3.892 11.623-.849 16.414-.567.416-1.167.783-1.796 1.097zm-7.981-36.616c3.19-3.003 8.209-2.853 11.212.336.004.004.007.009.012.013l.897.749c5.338 5.288 3.442 9.977-.699 14.318l-.399.35c-3.01-3.441-8.093-4.143-11.923-1.646 2.181-3.928 1.466-8.83-1.746-11.973l.549-.399.3-.3c.589-.379 1.14-.814 1.646-1.297zm12.372 16.912-.847-.699.499-.35.35-.25c.549-.449 1.147-.897 1.596-1.347v-.25c3.19-3.003 8.209-2.853 11.212.336.004.004.007.009.012.013l.847.699c5.338 5.288 3.442 9.977-.699 14.318l-.799.699c-2.84-1.95-6.588-1.95-9.429 0 2.436-4.495 1.253-10.095-2.793-13.22zm14.966-3.892c-4.339-4.041-7.882-3.991-11.026-1.996 2.206-3.988 1.093-8.995-2.593-11.673l1.546-.947.3-.25 1.646-1.347v-.25c3.008-2.8 7.669-2.8 10.676 0l-.549.35.649-.25 1.347 1.097c5.288 5.338 3.442 9.977-.749 14.318zm-219.504 176.9.35-.35c.684-.448 1.32-.966 1.896-1.546 3.548-3.544 9.297-3.538 12.841.01.078.078.154.159.231.239l.997.847c5.987 6.086 3.991 11.623-.997 16.612l-1.147.997c-4.989-4.989-9.28-4.989-12.921-2.495 2.62-4.558 1.395-10.359-2.843-13.469zm18.358-2.794 1.746-1.047.2-.3c.656-.466 1.273-.982 1.846-1.546l.3-.35c3.727-3.436 9.534-3.201 12.971.524.068.073.134.148.2.223h-.399.449l.699.599c6.037 6.037 3.892 11.573-.847 16.364-.466.454-.966.871-1.496 1.247-4.989-4.689-8.98-4.589-12.622-2.295 2.533-4.635 1.181-10.434-3.143-13.469zm-2.194 19.007.35-.3c.661-.479 1.294-.994 1.896-1.546v-.3c3.618-3.432 9.332-3.282 12.766.336.035.037.07.075.106.113l.997.847c6.086 6.086 3.941 11.623-.847 16.412l-1.147.997c-4.989-4.989-9.23-4.989-12.921-2.495 2.477-4.516 1.266-10.165-2.843-13.269zm18.408-2.793c.599-.32 1.182-.67 1.746-1.047l.35-.3c.673-.463 1.307-.98 1.896-1.546l.25-.3c3.714-3.45 9.522-3.235 12.973.479.068.072.134.145.198.22h-.401.449l.649.549c6.086 6.086 3.991 11.673-.799 16.412-.46.442-.941.859-1.446 1.247-4.989-4.639-9.03-4.589-12.672-2.345 2.473-4.66 1.057-10.434-3.292-13.419zm23.746-23.746c.599-.32 1.182-.67 1.746-1.047l.35-.3c.673-.463 1.307-.98 1.896-1.546v-.3c3.714-3.45 9.522-3.235 12.973.479.068.072.134.145.198.22l-.399.25h.449l.649.549c6.086 6.086 3.991 11.673-.799 16.412-.448.454-.931.871-1.446 1.247-4.989-4.639-9.08-4.589-12.672-2.345 2.677-4.657 1.357-10.587-3.043-13.669zm23.648-23.748c.599-.32 1.182-.67 1.746-1.047l.35-.3c.673-.463 1.307-.98 1.896-1.546v-.3c3.714-3.45 9.522-3.235 12.973.479.068.072.134.145.198.22h-.399.449l.649.549c6.086 6.086 3.991 11.673-.799 16.412-.448.454-.931.871-1.446 1.247-4.989-4.639-9.03-4.589-12.672-2.345 2.512-4.562 1.253-10.282-2.945-13.369zm23.745-23.745c.599-.32 1.182-.67 1.746-1.047l.15-.15c.664-.476 1.297-.993 1.896-1.546l.25-.3c3.714-3.45 9.522-3.235 12.973.479.068.072.134.145.198.22h-.399.449l.649.549c6.086 6.086 3.991 11.673-.799 16.414-.46.442-.941.859-1.446 1.247-4.989-4.639-9.03-4.589-12.672-2.345 2.626-4.621 1.333-10.481-2.993-13.569v.048zm23.746-23.746c.604-.313 1.187-.662 1.746-1.047l.35-.3c.664-.476 1.297-.993 1.896-1.546v-.3c3.714-3.45 9.522-3.235 12.973.479.068.072.134.145.198.22l-.399.25h.449l.649.549c6.086 6.086 3.991 11.673-.799 16.414-.46.442-.941.859-1.446 1.247-4.989-4.639-9.03-4.589-12.672-2.345 2.696-4.633 1.422-10.557-2.943-13.669zm61.662-29.234c6.086 6.086 3.941 11.623-.847 16.414l-1.197 1.047c-4.989-4.989-9.18-4.989-12.872-2.593 2.438-4.516 1.207-10.136-2.893-13.22l1.446-.897.399-.3c.661-.477 1.278-1.012 1.846-1.596 3.618-3.432 9.332-3.282 12.766.336.035.037.07.075.106.113zm2.943-3.792c-.449.449-.947.849-1.496 1.297-4.989-4.689-9.03-4.639-12.622-2.395 2.386-4.527 1.116-10.12-2.993-13.17.623-.325 1.223-.692 1.796-1.097l.35-.3c.664-.476 1.297-.993 1.896-1.546v-.3c3.714-3.45 9.522-3.235 12.973.479.068.072.134.145.198.22l-.399.25h.449l.649.549c6.087 5.638 3.991 11.225-.797 15.964v.048h-.004zm24.544-40.159c6.086 6.086 3.991 11.673-.799 16.414-.449.449-.947.849-1.496 1.297-4.989-4.689-8.98-4.639-12.622-2.395 2.504-4.576 1.223-10.299-2.993-13.369.614-.313 1.198-.681 1.746-1.097l.35-.3c.649-.499 1.297-.997 1.896-1.546v-.3c2.558-2.398 6.273-3.099 9.528-1.796 1.634.743 3.121 1.774 4.389 3.043v.05h.001zm17.211-23.396c4.989 5.288 3.392 9.977-.799 14.268l-1.247 1.097c-2.586-3.45-7.394-4.32-11.026-1.996 2.206-3.988 1.093-8.995-2.593-11.673.543-.269 1.06-.586 1.546-.947h.3c.579-.411 1.128-.862 1.646-1.347 2.275-2.148 5.608-2.736 8.481-1.496 1.331.483 2.576 1.173 3.692 2.046zm0-17.411c3.323 2.768 3.774 7.707 1.004 11.031-.477.573-1.034 1.075-1.654 1.491l-.749.649c-2.518-1.753-5.862-1.753-8.381 0 2.219-3.997 1.081-9.023-2.643-11.673l-.649-.599.599-.449.799-.749.897-.699c2.793-2.661 7.213-2.554 9.874.238.035.037.069.073.103.11zm-9.579-14.966.799-.749.897-.699c2.905-2.702 7.45-2.538 10.153.367.186.2.361.411.523.631 4.639 4.639 2.993 8.88-.649 12.572l-1.147.947c-2.259-3.04-6.479-3.823-9.678-1.796 1.793-3.438.819-7.669-2.295-9.977.499-.43.966-.897 1.397-1.397zm-12.372-12.422.997-.699.749-.599c2.919-2.727 7.497-2.571 10.224.35.178.191.345.391.502.599 3.336 2.796 3.774 7.767.978 11.103-.471.562-1.019 1.056-1.627 1.467l-1.147.947c-2.285-2.996-6.47-3.773-9.677-1.796 1.952-3.485.987-7.879-2.245-10.227.441-.391.856-.808 1.247-1.247zm-16.312 3.742.997-.699v.25l.947-.897.749-.549c2.659-2.755 7.05-2.833 9.805-.172.059.056.116.115.172.172l.799.699c4.689 4.639 2.993 8.88-.649 12.522l-.399.35-.649-.699c-4.539-4.589-8.181-4.539-11.523-2.445 1.565-2.69 1.469-6.036-.25-8.63v.1h.001zm-22.599 17.459.947-.649.399-.399c.546-.376 1.063-.793 1.546-1.247 3.162-3.031 8.184-2.925 11.215.236.021.021.04.041.059.063l.897.749c5.338 5.288 3.442 9.977-.699 14.318l-.399.3-.749-.897c-5.288-5.288-9.528-4.989-13.269-2.793 1.846-2.96 1.865-6.703.053-9.681zm-26.541 19.956 1.496-.897.449-.399c.643-.443 1.244-.944 1.796-1.496 3.63-3.46 9.378-3.32 12.836.31.028.029.056.06.084.09l1.047.849c6.086 6.086 3.941 11.673-.847 16.414l-1.197 1.047c-4.989-4.989-9.23-4.989-12.921-2.545 2.474-4.473 1.283-10.086-2.793-13.17zm-23.696 23.746 1.446-.897.449-.399c.643-.443 1.244-.944 1.796-1.496 3.63-3.46 9.378-3.32 12.836.31.028.029.056.06.084.09l1.047.849c6.086 6.086 3.941 11.673-.799 16.414l-1.247 1.047c-4.989-4.989-9.23-4.989-12.921-2.545 2.463-4.466 1.297-10.059-2.743-13.17zm-23.795 24.195 1.446-.897.499-.399c.615-.46 1.198-.959 1.746-1.496 3.63-3.46 9.378-3.32 12.836.31.028.029.056.06.084.09l1.047.849c6.086 6.086 3.941 11.673-.847 16.414l-1.197 1.047c-4.989-4.989-9.23-4.989-12.921-2.545 2.592-4.503 1.438-10.228-2.693-13.373zm-23.748 23.497 1.496-.947.499-.399c.615-.46 1.198-.959 1.746-1.496 3.63-3.46 9.378-3.32 12.836.31.028.029.056.06.084.09l1.047.849c6.086 6.086 3.941 11.673-.847 16.414l-1.197 1.047c-4.989-4.989-9.23-4.989-12.921-2.545 2.553-4.504 1.379-10.198-2.743-13.323zm-23.746 23.746 1.496-.947.499-.399c.615-.46 1.198-.959 1.746-1.496 3.627-3.461 9.375-3.328 12.836.301.062.065.123.131.184.198l1.047.847c6.086 6.086 3.941 11.673-.847 16.414l-1.197 1.047c-4.989-4.989-9.23-4.989-12.921-2.545 2.591-4.548 1.369-10.314-2.843-13.42zm-23.745 23.746 1.496-.947.499-.399c.599-.449 1.197-.997 1.746-1.496 3.63-3.46 9.378-3.32 12.836.31.028.029.056.06.084.09l1.047.847c6.086 6.086 3.941 11.673-.799 16.414l-1.347.997c-4.989-4.989-9.23-4.989-12.921-2.545 2.545-4.466 1.419-10.121-2.641-13.271zm-23.746 23.796 1.496-.947.499-.399c.615-.46 1.198-.959 1.746-1.496 3.63-3.46 9.378-3.32 12.836.31.028.029.056.06.084.09l1.047.847c6.086 6.086 3.941 11.673-.847 16.414l-1.197 1.047c-4.989-4.989-9.23-4.989-12.921-2.545 2.551-4.501 1.377-10.195-2.743-13.321zm-23.748 23.747 1.496-.947.499-.399c.614-.461 1.197-.962 1.746-1.496 3.63-3.46 9.378-3.32 12.836.31.028.029.056.06.084.09l1.047.847c6.086 6.086 3.941 11.673-.847 16.412l-1.147 1.047c-4.989-4.989-9.28-4.989-12.97-2.545 2.58-4.511 1.405-10.238-2.743-13.369v.051h-.001zm11.775 35.769c-2.975-3.952-8.479-4.971-12.672-2.345 2.245-3.892 2.046-8.331-2.993-13.369.623-.325 1.223-.692 1.796-1.097l.449-.399c.626-.446 1.209-.947 1.746-1.496 3.674-3.494 9.484-3.348 12.977.326.1.106.198.213.292.323h-.398.449l.649.549c6.086 6.086 3.991 11.673-.799 16.414-.471.388-.972.737-1.496 1.047zm16.362 16.164c-2.944-3.972-8.467-4.977-12.622-2.295 2.535-4.588 1.25-10.344-2.993-13.419l1.746-1.047.35-.3c.656-.466 1.273-.982 1.846-1.546l.3-.35c3.727-3.436 9.534-3.201 12.971.524.068.073.134.148.2.223h-.399.449l.699.549c6.037 6.086 3.892 11.623-.847 16.412-.851.4-1.35.849-1.7 1.249zm16.264 16.212c-3.066-3.984-8.699-4.902-12.872-2.096 2.504-4.576 1.223-10.299-2.993-13.369.561-.502 1.094-1.035 1.596-1.596l.35-.3c.664-.476 1.297-.993 1.896-1.546v-.3c3.714-3.45 9.522-3.235 12.973.479.068.072.134.145.198.22h-.399.449l.649.549c6.086 6.086 3.991 11.673-.799 16.414-.386.539-.802 1.056-1.247 1.546h.198v-.001zm22.249-21.202c6.086 6.086 3.941 11.623-.849 16.412l-1.197.997c-4.989-4.989-9.18-4.989-12.872-2.545 2.438-4.516 1.207-10.136-2.893-13.22l1.446-.897.399-.3c.648-.492 1.264-1.026 1.846-1.596 3.618-3.432 9.332-3.282 12.766.336.035.037.07.075.106.113zm23.746-23.746c6.086 6.086 3.941 11.623-.847 16.414l-1.197 1.047c-4.989-4.989-9.18-4.989-12.872-2.593 2.438-4.516 1.207-10.136-2.893-13.22l1.446-.897.399-.3c.648-.492 1.264-1.026 1.846-1.596h.25c3.618-3.432 9.332-3.282 12.766.336.035.037.07.075.106.113zm23.746-23.746c5.887 6.087 3.792 11.723-1.197 16.414l-1.197 1.047c-4.989-4.989-9.18-4.989-12.872-2.593 2.411-4.457 1.251-10.003-2.743-13.12l1.446-.897.399-.3c.648-.492 1.264-1.027 1.846-1.596 3.618-3.432 9.332-3.282 12.766.336.035.037.07.075.106.113zm23.747-23.746c6.086 6.086 3.941 11.623-.847 16.412l-1.197 1.047c-4.989-4.989-9.18-4.989-12.921-2.593 2.639-4.475 1.401-10.225-2.843-13.22l1.446-.897.399-.3c.648-.492 1.264-1.027 1.846-1.596v-.25c3.618-3.432 9.332-3.282 12.766.336.035.037.07.075.106.113zm21.701-6.287c-4.989-4.989-9.18-4.989-12.871-2.593 2.483-4.51 1.245-10.161-2.893-13.22l1.446-.897.399-.3c.648-.492 1.264-1.026 1.846-1.596h.25c3.618-3.432 9.332-3.282 12.766.336.035.037.07.075.106.113l.997.849c6.086 6.086 3.941 11.623-.847 16.412z" fill="#f7be56"/><path d="m73.664 272.17c20.503-32.726 52.332-62.059 88.051-76.327s112.995-40.159 143.825-63.206c-12.722 17.56-60.713 59.864-75.229 76.028-43.812 48.017-102.078 80.452-165.974 92.392 8.509-8.539 14.751-19.067 18.158-30.63" fill="#539642"/><path d="m338.465 178.232c-15.615-36.018-154.649 40.209-233.921 95.734-3.093 2.195-6.037 4.389-8.83 6.585 2.195-2.843 4.339-5.787 6.535-8.88 55.524-79.021 134.345-215.911 98.028-231.776-52.081-22.399-160.385 72.186-160.385 72.186s104.762-49.487 115.288-37.264c9.13 10.676-142.079 102.866-121.525 207.83s3.892 45.945-32.926 76.178l22.299 20.304s29.933-35.769 73.385-34.172c4.433.837 8.915 1.388 13.419 1.646 3.721 1.254 7.752 1.254 11.474 0 94.038-4.989 172.509-131.702 182.288-123.271 12.172 10.376-37.315 115.388-37.315 115.388s94.735-108.405 72.186-160.488z" fill="#5fa84a"/></g></g></svg>