<svg height="512" viewBox="0 0 60 60" width="512" xmlns="http://www.w3.org/2000/svg"><g id="Page-1" fill="none" fill-rule="evenodd"><g id="040---Paw" fill="rgb(0,0,0)" fill-rule="nonzero"><path id="Shape" d="m30 29c-4.532 0-13.872 7.365-15.97 15.757-1.06 4.243-.861 7.221.61 9.105 1.107 1.419 2.911 2.138 5.36 2.138 1.9205116-.0718118 3.7927423-.6217602 5.447-1.6 1.3794299-.8340159 2.9432904-1.3148867 4.553-1.4 1.6097096.0851133 3.1735701.5659841 4.553 1.4 1.6542577.9782398 3.5264884 1.5281882 5.447 1.6 2.449 0 4.253-.719 5.36-2.138 1.471-1.884 1.67-4.862.61-9.105-2.098-8.392-11.438-15.757-15.97-15.757zm13.784 23.631c-.72.921-1.957 1.369-3.784 1.369-1.6097096-.0851133-3.1735701-.5659841-4.553-1.4-1.6542577-.9782398-3.5264884-1.5281882-5.447-1.6-1.9205116.0718118-3.7927423.6217602-5.447 1.6-1.3794299.8340159-2.9432904 1.3148867-4.553 1.4-1.827 0-3.064-.448-3.784-1.369-1.052-1.347-1.135-3.833-.246-7.388 1.913-7.65 10.583-14.243 14.03-14.243s12.117 6.593 14.03 14.243c.889 3.557.806 6.041-.246 7.388z"/><path id="Shape" d="m22 27c3.925 0 7-4.832 7-11s-3.075-11-7-11-7 4.832-7 11 3.075 11 7 11zm0-20c2.71 0 5 4.122 5 9s-2.29 9-5 9-5-4.122-5-9 2.29-9 5-9z"/><path id="Shape" d="m17.106 32.3c.2488067-2.1577355-.102769-4.3422802-1.016-6.313-2.037-4.618-6.045-7.172-9.121-5.815s-3.9 6.038-1.86 10.656c.8395 2.0029652 2.21487398 3.7357634 3.975 5.008.9913024.7202499 2.1762627 1.1258052 3.401 1.164.6003405.0024776 1.1945053-.1211932 1.744-.363 1.6569861-.836856 2.7503062-2.4850066 2.877-4.337zm-3.683 2.51c-1.1083228.3605582-2.324278.1226622-3.215-.629-1.45030502-1.0617321-2.58110772-2.5014387-3.269-4.162-1.53-3.472-1.147-7.144.836-8.019.29815613-.1292251.62005491-.1946268.945-.192 1.891 0 4.237 2.029 5.54 4.984.7621761 1.6275846 1.0621104 3.4334178.867 5.22-.0459559 1.1645744-.6903837 2.2227369-1.704 2.798z"/><path id="Shape" d="m38 27c3.925 0 7-4.832 7-11s-3.075-11-7-11-7 4.832-7 11 3.075 11 7 11zm0-20c2.71 0 5 4.122 5 9s-2.29 9-5 9-5-4.122-5-9 2.29-9 5-9z"/><path id="Shape" d="m53.031 20.17c-3.071-1.357-7.084 1.2-9.121 5.815-.9135974 1.971318-1.2651813 4.1566063-1.016 6.315.1249819 1.8538242 1.2185497 3.5042487 2.877 4.342.5498669.2400891 1.1440167.3620534 1.744.358 1.2249259-.0398534 2.4095579-.4471578 3.4-1.169 1.760126-1.2722366 3.1355-3.0050348 3.975-5.008 2.037-4.615 1.219-9.296-1.859-10.653zm.03 9.849c-.6878923 1.6605613-1.818695 3.1002679-3.269 4.162-.8905499.752021-2.1067014.9899555-3.215.629-1.0126659-.5766307-1.6555612-1.6355172-1.7-2.8-.1951104-1.7865822.1048239-3.5924154.867-5.22 1.531-3.472 4.5-5.669 6.485-4.792s2.362 4.549.832 8.021z"/><path id="Shape" d="m55.447 16.105c-1.6308741-.7706967-3.4132008-1.1676804-5.217-1.162.567389-3.5832317-.3737812-7.24148789-2.6-10.106-2.3024705-2.99886261-5.8496086-4.78053516-9.63-4.837-4.582 0-6.883 2.019-8 3.675-1.117-1.656-3.418-3.675-8-3.675-3.77898.0576801-7.3243964 1.83922789-9.626 4.837-2.2262188 2.86451211-3.16738899 6.5227683-2.6 10.106-1.80374449-.0051763-3.58596149.3917829-5.217 1.162-2.081 1.039-4.557 3.946-4.557 11.895 0 4.321 1.32 8.808 2.718 13.559 1.451 4.931 2.951 10.03 3.234 15.61.0841189 1.5891583 1.39861936 2.8337572 2.99 2.831h42.116c1.5917473.0027297 2.9063942-1.2424476 2.99-2.832.283-5.579 1.783-10.678 3.234-15.609 1.398-4.751 2.718-9.238 2.718-13.559 0-7.949-2.476-10.856-4.553-11.895zm-.084 24.889c-1.483 5.043-3.017 10.257-3.313 16.071-.029261.5259457-.4652443.9368775-.992.935h-42.116c-.52639041.001906-.96222764-.4084488-.992-.934-.3-5.815-1.83-11.029-3.313-16.072-1.357-4.608-2.637-8.961-2.637-12.994 0-7.565 2.411-9.587 3.447-10.1 1.39013031-.6463841 2.90808464-.9710985 4.441-.95.3279618-.0030713.6558307.012621.982.047.3282902.0430763.6566185-.0791375.8768406-.3263869s.303783-.5874747.2231594-.9086131c-.8773952-3.3623045-.146062-6.94140498 1.98-9.69 1.9211477-2.51489184 4.8857962-4.01452521 8.05-4.072 6.04 0 6.983 4.032 7.02 4.2.0945186.46310033.5003634.79678571.973.8h.007c.4720759-.00006082.8798082-.33024895.978-.792.039-.176.982-4.208 7.022-4.208 3.1633464.05627616 6.1278387 1.55398921 8.05 4.067 2.126062 2.74859502 2.8573952 6.3276955 1.98 9.69-.0806236.3211384.0029373.6613637.2231594.9086131s.5485504.3694632.8768406.3263869c1.8561293-.1761534 3.7261403.1340217 5.426.9 1.033.521 3.444 2.543 3.444 10.108 0 4.033-1.28 8.386-2.637 12.994z"/></g></g></svg>