<?xml version="1.0" encoding="iso-8859-1"?>
<!-- Generator: Adobe Illustrator 16.0.0, SVG Export Plug-In . SVG Version: 6.00 Build 0)  -->
<!DOCTYPE svg PUBLIC "-//W3C//DTD SVG 1.1//EN" "http://www.w3.org/Graphics/SVG/1.1/DTD/svg11.dtd">
<svg version="1.1" id="Capa_1" xmlns="http://www.w3.org/2000/svg" xmlns:xlink="http://www.w3.org/1999/xlink" x="0px" y="0px"
	 width="435.783px" height="435.783px" viewBox="0 0 435.783 435.783" style="enable-background:new 0 0 435.783 435.783;"
	 xml:space="preserve">
<g>
	<g>
		<path d="M428.251,275.038c-15.706-18.083-52.923-17.488-83.122,1.346c-8.643,5.388-15.771,11.689-21.19,18.356H111.84
			c-5.411-6.667-12.538-12.979-21.188-18.356c-30.186-18.834-67.402-19.429-83.116-1.346c-15.706,18.083-3.958,48.007,26.228,66.836
			c4.329,2.687,8.8,5.002,13.335,6.942c-4.524,1.949-9.006,4.25-13.335,6.951C3.585,374.597-8.175,404.521,7.536,422.594
			c15.706,18.093,52.923,17.499,83.116-1.335c8.65-5.388,15.777-11.689,21.188-18.357h212.11
			c5.408,6.668,12.527,12.97,21.186,18.357c30.193,18.834,67.41,19.428,83.121,1.335c15.69-18.072,3.95-47.997-26.243-66.826
			c-4.321-2.701-8.79-5.002-13.324-6.951c4.524-1.94,9.003-4.256,13.324-6.942C432.202,323.045,443.942,293.121,428.251,275.038z"/>
		<path d="M350.873,164.219c-11.187,0-20.266,0-20.266,0l-6.281-19.276c-3.458-10.651-9.069-10.651-12.513,0
			c-3.483,10.648-6.281,19.276-6.281,19.276H285.26c-11.187,0-12.934,5.347-3.869,11.921c9.069,6.573,16.401,11.913,16.401,11.913
			l-6.281,19.284c-3.438,10.656,1.097,13.952,10.166,7.371c9.044-6.581,16.387-11.92,16.387-11.92l16.397,11.92
			c9.063,6.582,13.599,3.286,10.15-7.371c-3.474-10.656-6.276-19.284-6.276-19.284l16.412-11.913
			C363.801,169.559,362.055,164.219,350.873,164.219z"/>
		<path d="M145.471,164.219c-11.187,0-20.264,0-20.264,0l-6.281-19.276c-3.461-10.651-9.069-10.651-12.512,0
			c-3.486,10.648-6.282,19.276-6.282,19.276H79.861c-11.187,0-12.934,5.347-3.872,11.921c9.069,6.573,16.402,11.913,16.402,11.913
			l-6.281,19.284c-3.445,10.656,1.097,13.952,10.166,7.371c9.046-6.581,16.387-11.92,16.387-11.92l16.399,11.92
			c9.062,6.582,13.596,3.286,10.151-7.371c-3.476-10.656-6.279-19.284-6.279-19.284l16.414-11.913
			C158.402,169.559,156.656,164.219,145.471,164.219z"/>
		<path d="M393.299,250.699c7.673,0,14.848,1.021,21.389,2.931c4.164-16.321,6.357-33.241,6.357-50.48
			C421.045,91.126,329.911,0,217.898,0C105.883,0,14.749,91.126,14.749,203.149c0,17.295,2.14,34.221,6.281,50.506
			c6.563-1.93,13.761-2.956,21.465-2.956c6.391,0,12.9,0.741,19.393,2.062c-5.009-15.812-7.64-32.483-7.64-49.604
			c0-90.233,73.415-163.648,163.65-163.648c90.233,0,163.645,73.415,163.645,163.648c0,17.08-2.747,33.756-7.789,49.635
			C380.315,251.451,386.871,250.699,393.299,250.699z"/>
		<path d="M262.313,133.952c-15.163,0-27.432,0-27.432,0l-8.5-26.108c-4.677-14.409-12.284-14.409-16.953,0
			c-4.707,14.424-8.485,26.108-8.485,26.108h-27.467c-15.145,0-17.499,7.239-5.23,16.132c12.284,8.904,22.213,16.133,22.213,16.133
			l-8.5,26.108c-4.674,14.427,1.47,18.891,13.749,9.986c12.251-8.912,22.191-16.133,22.191-16.133l22.199,16.133
			c12.258,8.904,18.392,4.44,13.721-9.986c-4.683-14.416-8.476-26.108-8.476-26.108l22.217-16.133
			C279.812,141.19,277.465,133.952,262.313,133.952z"/>
	</g>
</g>
<g>
</g>
<g>
</g>
<g>
</g>
<g>
</g>
<g>
</g>
<g>
</g>
<g>
</g>
<g>
</g>
<g>
</g>
<g>
</g>
<g>
</g>
<g>
</g>
<g>
</g>
<g>
</g>
<g>
</g>
</svg>
